<svg width="94" height="59" viewBox="0 0 94 59" fill="none" xmlns="http://www.w3.org/2000/svg">
<path fill-rule="evenodd" clip-rule="evenodd" d="M1.00074 25.3275L1 25.2828V21.7037H4.57151V47.9546L4.57299 48.0364V51.5784H1V47.9993L1.00074 47.9546V25.3275Z" fill="#3781C2"/>
<path fill-rule="evenodd" clip-rule="evenodd" d="M37.3153 40.6987C37.407 46.1283 40.7663 50.4704 44.819 50.3977C48.871 50.325 52.081 45.8646 51.9893 40.4349C51.8968 35.0046 48.5375 30.6624 44.4848 30.7359C40.4329 30.8086 37.2229 35.269 37.3153 40.6987ZM66.8868 34.1339C66.98 34.3407 66.7588 33.8247 66.7588 33.8247L66.8868 34.1339ZM69.3209 56.6124C69.4846 56.332 69.7127 55.9031 69.984 55.3673L69.3209 56.6124ZM69.5308 32.2606C69.574 32.3811 69.624 32.5069 69.6801 32.6395L70.8827 35.6017L69.5308 32.2606ZM54.5658 47.1725C56.7733 49.1883 58.761 50.2302 61.3027 50.2302C63.9042 50.2499 66.217 48.97 66.217 46.5064C66.217 44.4505 64.405 43.2479 61.1677 41.871C58.4245 40.6767 56.383 39.8393 55.316 38.1108C55.4464 38.8617 55.5146 39.6377 55.5146 40.4319C55.5146 47.0998 50.7071 52.5059 44.7766 52.5059C38.846 52.5059 34.0386 47.0998 34.0386 40.4319C34.0386 36.4118 35.7861 32.8509 38.4725 30.6563H31.2059V47.9546L31.2067 48.0235V51.5783H27.9792V48.1395C27.9815 48.0788 27.9823 48.0175 27.9823 47.9546V30.6563H25.1367V28.4792H28.0239C28.3968 24.087 31.1014 21.6029 34.8456 21.6029C37.2736 21.6029 38.6066 21.8575 39.3765 22.216V25.1933C39.3644 25.4154 39.3644 25.551 39.3644 25.551C39.331 25.5472 39.2515 25.5457 39.2515 25.5457C38.083 24.4613 36.9303 23.6543 34.2379 23.6573C32.0933 23.6573 30.6747 25.4101 31.1703 28.4792H43.2496C43.749 28.3996 44.2582 28.3579 44.7766 28.3579C49.0786 28.3579 52.7903 31.2027 54.5037 35.3115C54.4878 35.0834 54.4802 34.8454 54.4802 34.5969C54.4802 30.31 58.6049 28.4867 62.8895 28.4958C63.0532 28.4951 63.2138 28.4958 63.3714 28.4996C64.8794 28.4754 67.0278 28.9702 68.3396 29.3173L70.8827 35.6017L74.5171 44.5195L74.9438 45.9517L75.4189 44.5195L80.0149 33.0729C80.8629 29.9212 84.2192 28.5572 87.9264 28.5648C89.7693 28.5564 91.1303 28.78 92.7626 29.3574V32.8191C90.753 31.3497 89.3139 30.4957 87.0336 30.4957C85.0293 30.4957 82.6203 31.3883 82.6203 34.3559C82.5816 36.5861 83.9115 36.9938 87.8142 38.9421C91.022 40.3432 93.9812 41.8899 93.9986 45.472C93.9986 51.4442 88.1499 52.4786 85.3028 52.4877C82.7612 52.4877 80.4317 51.8565 79.1359 50.7721V46.8292L79.3443 47.0028C81.6563 49.1746 83.6994 50.2999 86.3395 50.2999C88.9418 50.3197 91.2538 49.039 91.2538 46.5754C91.2538 44.5195 89.4419 43.3168 86.2046 41.9399C83.1105 40.5926 81.0804 39.6999 80.2506 37.4682C78.9889 40.5638 73.1197 54.943 71.7383 58.0166H68.5737L70.0059 55.3264C70.7994 53.7547 71.9535 51.2889 72.9788 48.9298L66.8868 34.1339C66.8459 34.0437 66.7459 33.8163 66.5421 33.3503C66.0745 32.2788 65.6395 31.2891 64.324 30.7904C63.6192 30.5517 62.869 30.4267 61.9968 30.4267C59.9924 30.4267 57.4288 31.3194 57.4288 34.2869C57.3901 36.5171 58.8739 36.9248 62.7773 38.8724C65.9851 40.2743 68.9443 41.8209 68.9617 45.4031C68.9617 51.3753 63.1123 52.4089 60.2652 52.4188C58.0055 52.4188 55.9124 51.9194 54.5658 51.0464V47.1725Z" fill="#3781C2"/>
<path fill-rule="evenodd" clip-rule="evenodd" d="M11.2365 28.7019L11.2759 31.3148L11.2736 31.4906L11.3084 31.4898C11.3501 31.3807 11.4062 31.2882 11.4593 31.2193C12.771 29.8045 14.4245 28.3988 18.3545 28.3988C22.1162 28.3988 24.551 31.6141 24.6487 33.6382L24.6525 47.9545V48.0257V51.5783H21.4289V47.3096L21.4281 35.1219C21.4281 32.5985 19.2267 30.7737 16.532 30.7737C14.2919 30.7737 11.4168 32.8016 11.3213 34.8544V47.9583L11.3229 48.0545V51.5813H8.09766V31.7103L8.09844 28.7019H11.2365Z" fill="#3781C2"/>
<path d="M0.737 2.586V10H2.409V2.586H0.737ZM3.83995 10H5.51195V6.898C5.51195 6.744 5.52295 6.59 5.56695 6.48C5.68795 6.172 5.96295 5.853 6.42495 5.853C7.02995 5.853 7.27195 6.326 7.27195 7.019V10H8.94395V6.821C8.94395 5.237 8.11895 4.5 7.01895 4.5C6.11695 4.5 5.57795 5.017 5.35795 5.369H5.32495L5.24795 4.621H3.79595C3.81795 5.105 3.83995 5.666 3.83995 6.337V10ZM12.5089 12.178H14.1809V9.505H14.2029C14.4449 9.857 14.9509 10.121 15.5999 10.121C16.7989 10.121 18.0419 9.197 18.0419 7.239C18.0419 5.523 16.9859 4.5 15.8089 4.5C15.0279 4.5 14.4119 4.808 14.0159 5.369H13.9939L13.9169 4.621H12.4649C12.4869 5.127 12.5089 5.721 12.5089 6.425V12.178ZM14.1809 6.953C14.1809 6.854 14.1919 6.744 14.2139 6.656C14.3239 6.161 14.7419 5.809 15.2149 5.809C15.9629 5.809 16.3479 6.458 16.3479 7.316C16.3479 8.229 15.9189 8.834 15.1929 8.834C14.7089 8.834 14.3239 8.493 14.2139 8.042C14.1919 7.932 14.1809 7.822 14.1809 7.69V6.953ZM23.5601 6.821C23.5601 5.545 22.9991 4.489 21.2061 4.489C20.2271 4.489 19.4901 4.764 19.1161 4.973L19.4241 6.051C19.7761 5.831 20.3591 5.644 20.9091 5.644C21.7341 5.644 21.8881 6.051 21.8881 6.348V6.414C19.9851 6.414 18.7311 7.074 18.7311 8.471C18.7311 9.329 19.3801 10.121 20.4691 10.121C21.1071 10.121 21.6571 9.89 22.0091 9.461H22.0421L22.1411 10H23.6481C23.5821 9.703 23.5601 9.208 23.5601 8.702V6.821ZM21.9431 8.042C21.9431 8.141 21.9321 8.24 21.9101 8.328C21.8001 8.669 21.4481 8.944 21.0411 8.944C20.6671 8.944 20.3811 8.735 20.3811 8.306C20.3811 7.668 21.0631 7.459 21.9431 7.459V8.042ZM24.8946 10H26.5666V7.272C26.5666 7.14 26.5776 7.008 26.5996 6.898C26.7096 6.381 27.1276 6.051 27.7436 6.051C27.9306 6.051 28.0626 6.073 28.1946 6.095V4.522C28.0736 4.5 27.9966 4.489 27.8426 4.489C27.3146 4.489 26.6656 4.819 26.3906 5.611H26.3466L26.2806 4.621H24.8506C24.8836 5.083 24.8946 5.6 24.8946 6.392V10ZM29.5407 3.62V4.621H28.8257V5.853H29.5407V8.053C29.5407 8.812 29.6947 9.329 30.0027 9.648C30.2777 9.923 30.7287 10.11 31.2677 10.11C31.7297 10.11 32.1367 10.044 32.3457 9.967L32.3347 8.702C32.1807 8.735 32.0707 8.746 31.8397 8.746C31.3447 8.746 31.1797 8.449 31.1797 7.8V5.853H32.3787V4.621H31.1797V3.169L29.5407 3.62ZM33.3487 10H35.0207V6.898C35.0207 6.744 35.0317 6.59 35.0757 6.48C35.1967 6.172 35.4717 5.853 35.9337 5.853C36.5387 5.853 36.7807 6.326 36.7807 7.019V10H38.4527V6.821C38.4527 5.237 37.6277 4.5 36.5277 4.5C35.6257 4.5 35.0867 5.017 34.8667 5.369H34.8337L34.7567 4.621H33.3047C33.3267 5.105 33.3487 5.666 33.3487 6.337V10ZM44.546 7.844C44.568 7.723 44.601 7.47 44.601 7.184C44.601 5.853 43.941 4.5 42.203 4.5C40.333 4.5 39.486 6.007 39.486 7.371C39.486 9.054 40.531 10.11 42.357 10.11C43.083 10.11 43.754 10 44.304 9.769L44.084 8.636C43.633 8.79 43.171 8.867 42.599 8.867C41.818 8.867 41.125 8.537 41.081 7.844H44.546ZM41.07 6.7C41.114 6.26 41.4 5.611 42.104 5.611C42.874 5.611 43.05 6.293 43.05 6.7H41.07ZM45.6056 10H47.2776V7.272C47.2776 7.14 47.2886 7.008 47.3106 6.898C47.4206 6.381 47.8386 6.051 48.4546 6.051C48.6416 6.051 48.7736 6.073 48.9056 6.095V4.522C48.7846 4.5 48.7076 4.489 48.5536 4.489C48.0256 4.489 47.3766 4.819 47.1016 5.611H47.0576L46.9916 4.621H45.5616C45.5946 5.083 45.6056 5.6 45.6056 6.392V10ZM49.4763 9.736C49.8833 9.956 50.5103 10.121 51.2143 10.121C52.7543 10.121 53.5353 9.384 53.5353 8.372C53.5243 7.591 53.1063 7.063 52.0833 6.711C51.4233 6.48 51.2143 6.348 51.2143 6.084C51.2143 5.82 51.4453 5.655 51.8523 5.655C52.3033 5.655 52.7763 5.831 53.0183 5.963L53.3043 4.808C52.9743 4.643 52.4243 4.489 51.7973 4.489C50.4663 4.489 49.6083 5.248 49.6083 6.26C49.5973 6.898 50.0263 7.503 51.1483 7.877C51.7643 8.086 51.9293 8.218 51.9293 8.504C51.9293 8.779 51.7203 8.944 51.2143 8.944C50.7193 8.944 50.0813 8.735 49.7733 8.548L49.4763 9.736ZM54.5538 10H56.2258V6.81C56.2258 6.689 56.2368 6.546 56.2808 6.447C56.4018 6.139 56.6768 5.853 57.1168 5.853C57.7438 5.853 57.9858 6.337 57.9858 7.041V10H59.6578V6.865C59.6578 5.237 58.8438 4.5 57.7768 4.5C57.4688 4.5 57.1608 4.577 56.9078 4.709C56.6438 4.841 56.4238 5.028 56.2478 5.27H56.2258V2.19H54.5538V10ZM62.6711 10V4.621H60.9991V10H62.6711ZM61.8461 2.289C61.3071 2.289 60.9551 2.652 60.9551 3.125C60.9551 3.587 61.2961 3.961 61.8241 3.961C62.3851 3.961 62.7261 3.587 62.7261 3.125C62.7151 2.652 62.3851 2.289 61.8461 2.289ZM64.0177 12.178H65.6897V9.505H65.7117C65.9537 9.857 66.4597 10.121 67.1087 10.121C68.3077 10.121 69.5507 9.197 69.5507 7.239C69.5507 5.523 68.4947 4.5 67.3177 4.5C66.5367 4.5 65.9207 4.808 65.5247 5.369H65.5027L65.4257 4.621H63.9737C63.9957 5.127 64.0177 5.721 64.0177 6.425V12.178ZM65.6897 6.953C65.6897 6.854 65.7007 6.744 65.7227 6.656C65.8327 6.161 66.2507 5.809 66.7237 5.809C67.4717 5.809 67.8567 6.458 67.8567 7.316C67.8567 8.229 67.4277 8.834 66.7017 8.834C66.2177 8.834 65.8327 8.493 65.7227 8.042C65.7007 7.932 65.6897 7.822 65.6897 7.69V6.953ZM72.2655 4.621L73.8385 10H75.4115L75.9505 8.108C76.0825 7.613 76.1925 7.107 76.2915 6.436H76.3135C76.4235 7.107 76.5225 7.591 76.6655 8.119L77.1715 10H78.7335L80.3835 4.621H78.7445L78.2935 6.755C78.1615 7.371 78.0515 7.987 77.9745 8.592H77.9525C77.8535 7.976 77.7105 7.382 77.5565 6.766L77.0175 4.621H75.6975L75.1255 6.843C75.0045 7.371 74.8395 7.976 74.7405 8.592H74.7075C74.6195 7.976 74.5095 7.382 74.4105 6.832L73.9705 4.621H72.2655ZM82.8342 10V4.621H81.1622V10H82.8342ZM82.0092 2.289C81.4702 2.289 81.1182 2.652 81.1182 3.125C81.1182 3.587 81.4592 3.961 81.9872 3.961C82.5482 3.961 82.8892 3.587 82.8892 3.125C82.8782 2.652 82.5482 2.289 82.0092 2.289ZM84.4118 3.62V4.621H83.6968V5.853H84.4118V8.053C84.4118 8.812 84.5658 9.329 84.8738 9.648C85.1488 9.923 85.5998 10.11 86.1388 10.11C86.6008 10.11 87.0078 10.044 87.2168 9.967L87.2058 8.702C87.0518 8.735 86.9418 8.746 86.7108 8.746C86.2158 8.746 86.0508 8.449 86.0508 7.8V5.853H87.2498V4.621H86.0508V3.169L84.4118 3.62ZM88.2198 10H89.8918V6.81C89.8918 6.689 89.9028 6.546 89.9468 6.447C90.0678 6.139 90.3428 5.853 90.7828 5.853C91.4098 5.853 91.6518 6.337 91.6518 7.041V10H93.3238V6.865C93.3238 5.237 92.5098 4.5 91.4428 4.5C91.1348 4.5 90.8268 4.577 90.5738 4.709C90.3098 4.841 90.0898 5.028 89.9138 5.27H89.8918V2.19H88.2198V10Z" fill="black"/>
</svg>
